<svg xmlns="http://www.w3.org/2000/svg" xmlns:xlink="http://www.w3.org/1999/xlink" version="1.1" width="331px" height="121px" viewBox="-0.5 -0.5 331 121"><defs/><g><path d="M 0 30 L 0 0 L 130 0 L 130 30" fill="#d5e8d4" stroke="#000000" stroke-miterlimit="10" pointer-events="all"/><path d="M 0 30 L 0 120 L 130 120 L 130 30" fill="none" stroke="#000000" stroke-miterlimit="10" pointer-events="none"/><path d="M 0 30 L 130 30" fill="none" stroke="#000000" stroke-miterlimit="10" pointer-events="none"/><path d="M 0 60 L 130 60" fill="none" stroke="#000000" stroke-miterlimit="10" pointer-events="none"/><path d="M 0 90 L 130 90" fill="none" stroke="#000000" stroke-miterlimit="10" pointer-events="none"/><path d="M 43 30 L 43 120" fill="none" stroke="#000000" stroke-miterlimit="10" pointer-events="none"/><path d="M 87 30 L 87 120" fill="none" stroke="#000000" stroke-miterlimit="10" pointer-events="none"/><g transform="translate(-0.5 -0.5)"><switch><foreignObject style="overflow: visible; text-align: left;" pointer-events="none" width="100%" height="100%" requiredFeatures="http://www.w3.org/TR/SVG11/feature#Extensibility"><div xmlns="http://www.w3.org/1999/xhtml" style="display: flex; align-items: unsafe center; justify-content: unsafe center; width: 128px; height: 1px; padding-top: 15px; margin-left: 1px;"><div style="box-sizing: border-box; font-size: 0; text-align: center; "><div style="display: inline-block; font-size: 12px; font-family: Helvetica; color: #000000; line-height: 1.2; pointer-events: none; font-weight: bold; white-space: normal; word-wrap: normal; ">Table A</div></div></div></foreignObject><text x="65" y="19" fill="#000000" font-family="Helvetica" font-size="12px" text-anchor="middle" font-weight="bold">Table A</text></switch></g><path d="M 0 30 M 130 30 M 130 60 M 0 60" fill="none" stroke="#000000" stroke-miterlimit="10" pointer-events="none"/><path d="M 0 30 M 43 30 M 43 60 M 0 60" fill="none" stroke="#000000" stroke-miterlimit="10" pointer-events="none"/><path d="M 43 30 M 87 30 M 87 60 M 43 60" fill="none" stroke="#000000" stroke-miterlimit="10" pointer-events="none"/><path d="M 87 30 M 130 30 M 130 60 M 87 60" fill="none" stroke="#000000" stroke-miterlimit="10" pointer-events="none"/><path d="M 0 60 M 130 60 M 130 90 M 0 90" fill="none" stroke="#000000" stroke-miterlimit="10" pointer-events="none"/><path d="M 0 60 M 43 60 M 43 90 M 0 90" fill="none" stroke="#000000" stroke-miterlimit="10" pointer-events="none"/><path d="M 43 60 M 87 60 M 87 90 M 43 90" fill="none" stroke="#000000" stroke-miterlimit="10" pointer-events="none"/><path d="M 87 60 M 130 60 M 130 90 M 87 90" fill="none" stroke="#000000" stroke-miterlimit="10" pointer-events="none"/><path d="M 0 90 M 130 90 M 130 120 M 0 120" fill="none" stroke="#000000" stroke-miterlimit="10" pointer-events="none"/><path d="M 0 90 M 43 90 M 43 120 M 0 120" fill="none" stroke="#000000" stroke-miterlimit="10" pointer-events="none"/><path d="M 43 90 M 87 90 M 87 120 M 43 120" fill="none" stroke="#000000" stroke-miterlimit="10" pointer-events="none"/><path d="M 87 90 M 130 90 M 130 120 M 87 120" fill="none" stroke="#000000" stroke-miterlimit="10" pointer-events="none"/><path d="M 200 30 L 200 0 L 330 0 L 330 30" fill="#e1d5e7" stroke="#000000" stroke-miterlimit="10" pointer-events="none"/><path d="M 200 30 L 200 120 L 330 120 L 330 30" fill="none" stroke="#000000" stroke-miterlimit="10" pointer-events="none"/><path d="M 200 30 L 330 30" fill="none" stroke="#000000" stroke-miterlimit="10" pointer-events="none"/><path d="M 200 60 L 330 60" fill="none" stroke="#000000" stroke-miterlimit="10" pointer-events="none"/><path d="M 200 90 L 330 90" fill="none" stroke="#000000" stroke-miterlimit="10" pointer-events="none"/><path d="M 243 30 L 243 120" fill="none" stroke="#000000" stroke-miterlimit="10" pointer-events="none"/><path d="M 287 30 L 287 120" fill="none" stroke="#000000" stroke-miterlimit="10" pointer-events="none"/><g transform="translate(-0.5 -0.5)"><switch><foreignObject style="overflow: visible; text-align: left;" pointer-events="none" width="100%" height="100%" requiredFeatures="http://www.w3.org/TR/SVG11/feature#Extensibility"><div xmlns="http://www.w3.org/1999/xhtml" style="display: flex; align-items: unsafe center; justify-content: unsafe center; width: 128px; height: 1px; padding-top: 15px; margin-left: 201px;"><div style="box-sizing: border-box; font-size: 0; text-align: center; "><div style="display: inline-block; font-size: 12px; font-family: Helvetica; color: #000000; line-height: 1.2; pointer-events: none; font-weight: bold; white-space: normal; word-wrap: normal; ">Table B</div></div></div></foreignObject><text x="265" y="19" fill="#000000" font-family="Helvetica" font-size="12px" text-anchor="middle" font-weight="bold">Table B</text></switch></g><path d="M 200 30 M 330 30 M 330 60 M 200 60" fill="none" stroke="#000000" stroke-miterlimit="10" pointer-events="none"/><path d="M 200 30 M 243 30 M 243 60 M 200 60" fill="none" stroke="#000000" stroke-miterlimit="10" pointer-events="none"/><path d="M 243 30 M 287 30 M 287 60 M 243 60" fill="none" stroke="#000000" stroke-miterlimit="10" pointer-events="none"/><path d="M 287 30 M 330 30 M 330 60 M 287 60" fill="none" stroke="#000000" stroke-miterlimit="10" pointer-events="none"/><path d="M 200 60 M 330 60 M 330 90 M 200 90" fill="none" stroke="#000000" stroke-miterlimit="10" pointer-events="none"/><path d="M 200 60 M 243 60 M 243 90 M 200 90" fill="none" stroke="#000000" stroke-miterlimit="10" pointer-events="none"/><path d="M 243 60 M 287 60 M 287 90 M 243 90" fill="none" stroke="#000000" stroke-miterlimit="10" pointer-events="none"/><path d="M 287 60 M 330 60 M 330 90 M 287 90" fill="none" stroke="#000000" stroke-miterlimit="10" pointer-events="none"/><path d="M 200 90 M 330 90 M 330 120 M 200 120" fill="none" stroke="#000000" stroke-miterlimit="10" pointer-events="none"/><path d="M 200 90 M 243 90 M 243 120 M 200 120" fill="none" stroke="#000000" stroke-miterlimit="10" pointer-events="none"/><path d="M 243 90 M 287 90 M 287 120 M 243 120" fill="none" stroke="#000000" stroke-miterlimit="10" pointer-events="none"/><path d="M 287 90 M 330 90 M 330 120 M 287 120" fill="none" stroke="#000000" stroke-miterlimit="10" pointer-events="none"/><path d="M 136.37 60 L 193.63 60" fill="none" stroke="#ff6666" stroke-miterlimit="10" pointer-events="none"/><path d="M 131.12 60 L 138.12 56.5 L 136.37 60 L 138.12 63.5 Z" fill="#ff6666" stroke="#ff6666" stroke-miterlimit="10" pointer-events="none"/><path d="M 198.88 60 L 191.88 63.5 L 193.63 60 L 191.88 56.5 Z" fill="#ff6666" stroke="#ff6666" stroke-miterlimit="10" pointer-events="none"/></g><switch><g requiredFeatures="http://www.w3.org/TR/SVG11/feature#Extensibility"/><a transform="translate(0,-5)" xlink:href="https://desk.draw.io/support/solutions/articles/16000042487" target="_blank"><text text-anchor="middle" font-size="10px" x="50%" y="100%">Viewer does not support full SVG 1.1</text></a></switch></svg>